<svg version="1.1" id="Layer_1" xmlns="http://www.w3.org/2000/svg" xmlns:xlink="http://www.w3.org/1999/xlink" x="0px" y="0px"
     width="100%" viewBox="0 0 250 250" enable-background="new 0 0 250 250" xml:space="preserve" preserveAspectRatio="xMidYMid meet">
<circle fill="#0370FF" opacity="1.000000" stroke="none" cx="125" cy="125" r="125"/>
<circle fill="#FDFEFF" opacity="1.000000" stroke="none" cx="125" cy="125" r="113"/>
<path fill="#0470FF" opacity="1.000000" stroke="none"
    d="
M167.943298,128.951492
    C166.713318,129.483139 165.827484,129.883362 164.826340,130.335678
    C165.269211,130.872726 165.505203,131.373489 165.899399,131.605789
    C178.140427,138.819473 180.072922,148.930191 176.966064,160.219406
    C173.112137,174.223129 164.576981,181.967163 151.153046,182.903946
    C143.749374,183.420609 136.280060,182.996475 128.100281,182.996475
    C126.596115,188.813080 124.774826,195.855957 122.794029,203.515671
    C118.477371,202.494431 114.362534,201.520935 109.527641,200.377075
    C111.301437,193.045670 113.002274,186.015823 114.849670,178.380203
    C111.464752,177.446426 108.185982,176.541931 104.211594,175.445557
    C102.295448,182.847351 100.448181,189.983093 98.483917,197.570770
    C93.964714,196.426239 89.849350,195.384003 85.278931,194.226501
    C87.087410,186.710526 88.786766,179.648041 90.651604,171.897812
    C81.676880,169.562134 72.909355,167.280365 63.645119,164.869339
    C65.887047,159.679657 67.965530,154.868347 70.194817,149.707932
    C73.349625,150.477753 76.220436,151.191437 79.097916,151.877213
    C83.004707,152.808289 85.602417,151.518524 86.609604,147.463852
    C91.387604,128.228943 96.233917,109.010780 100.929909,89.755928
    C102.170059,84.670990 100.423546,81.830437 95.420921,80.223244
    C92.285683,79.215981 89.057327,78.498543 85.426109,77.532814
    C86.589172,72.784607 87.677383,68.342003 88.885033,63.411793
    C98.090736,65.692345 106.757240,67.839317 116.061180,70.144211
    C117.949249,62.714275 119.771950,55.541611 121.696152,47.969490
    C126.219383,49.102947 130.355530,50.139412 134.985474,51.299610
    C133.227478,58.494633 131.543793,65.385513 129.724152,72.832817
    C133.195663,73.714149 136.491302,74.550835 140.388474,75.540230
    C142.309280,68.268341 144.148651,61.304707 146.066925,54.042385
    C150.636795,55.194454 154.762222,56.234482 159.251846,57.366322
    C157.438538,64.830215 155.721161,71.899239 154.016068,78.917686
    C159.379074,81.687943 164.767059,83.948570 169.597397,87.071716
    C180.677460,94.235764 183.850403,104.796745 179.208450,117.066322
    C177.157761,122.486717 173.543106,126.403008 167.943298,128.951492
M122.897789,162.743393
    C128.192032,162.937149 133.523300,163.605850 138.770554,163.196762
    C144.508377,162.749451 148.697601,159.601776 150.134048,153.604309
    C151.619934,147.400513 149.011673,142.825287 144.159500,139.410675
    C135.785797,133.517807 126.000168,131.684723 115.882133,129.545349
    C113.364120,139.667313 110.974205,149.274353 108.479652,159.301987
    C113.380508,160.483124 117.717484,161.528366 122.897789,162.743393
z
M141.955307,119.508072
    C150.036377,118.174904 153.559372,115.239914 154.600693,108.973244
    C155.526260,103.403259 152.789185,98.229996 146.063919,95.240799
    C139.806381,92.459488 133.105911,90.674721 126.147163,88.296303
    C123.707115,98.195915 121.549232,106.950768 119.143066,116.712929
    C127.055161,117.753365 134.087357,118.678101 141.955307,119.508072
z"/>
<path fill="#FAFCFF" opacity="1.000000" stroke="none"
    d="
M122.476128,162.658508
    C117.717484,161.528366 113.380508,160.483124 108.479652,159.301987
    C110.974205,149.274353 113.364120,139.667313 115.882133,129.545349
    C126.000168,131.684723 135.785797,133.517807 144.159500,139.410675
    C149.011673,142.825287 151.619934,147.400513 150.134048,153.604309
    C148.697601,159.601776 144.508377,162.749451 138.770554,163.196762
    C133.523300,163.605850 128.192032,162.937149 122.476128,162.658508
z"/>
<path fill="#F9FBFF" opacity="1.000000" stroke="none"
    d="
M141.537430,119.555450
    C134.087357,118.678101 127.055161,117.753365 119.143066,116.712929
    C121.549232,106.950768 123.707115,98.195915 126.147163,88.296303
    C133.105911,90.674721 139.806381,92.459488 146.063919,95.240799
    C152.789185,98.229996 155.526260,103.403259 154.600693,108.973244
    C153.559372,115.239914 150.036377,118.174904 141.537430,119.555450
z"/>
</svg>