<svg version="1.1" id="Layer_1" xmlns="http://www.w3.org/2000/svg" xmlns:xlink="http://www.w3.org/1999/xlink" x="0px" y="0px"
	 width="100%" viewBox="0 0 250 250" enable-background="new 0 0 250 250" xml:space="preserve">
<path fill="#0370FF" opacity="1.000000" stroke="none" 
	d="
M1.000000,150.000000 
	C1.000000,134.312439 1.000000,118.624878 1.318345,102.803535 
	C2.059892,102.173950 2.783538,101.721535 2.862324,101.175995 
	C4.792615,87.809853 9.918064,75.631927 16.511448,63.979233 
	C25.567881,47.973526 37.512112,34.619473 52.450283,23.827951 
	C66.597107,13.608109 82.116371,6.679081 99.123413,2.929257 
	C99.855156,2.767916 100.379196,1.664540 101.000000,0.999999 
	C117.020897,1.000000 133.041794,1.000000 149.196472,1.318346 
	C149.827515,2.060050 150.281479,2.783913 150.828415,2.862760 
	C164.054535,4.769424 176.115067,9.841218 187.688538,16.277430 
	C204.876144,25.835741 218.929306,38.955051 229.913040,55.099277 
	C239.293610,68.887123 246.385925,83.868576 249.104019,100.593727 
	C249.194489,101.150490 250.344101,101.535133 251.000000,102.000000 
	C251.000000,117.687561 251.000000,133.375122 250.681641,149.196503 
	C249.940109,149.826126 249.216522,150.278549 249.137726,150.824097 
	C247.207184,164.189529 242.086212,176.369034 235.488861,188.019043 
	C226.427902,204.019409 214.492538,217.381042 199.552322,228.171448 
	C185.403427,238.390350 169.883194,245.318130 152.876450,249.070740 
	C152.144699,249.232208 151.620758,250.335464 151.000000,251.000000 
	C134.979111,251.000000 118.958214,251.000000 102.803543,250.681641 
	C98.057968,249.045609 93.413826,247.830826 88.839867,246.392776 
	C66.613693,239.404968 47.722496,227.324554 32.234547,209.803558 
	C17.392090,193.012756 7.295049,173.943726 2.924246,151.896881 
	C2.779378,151.166138 1.663340,150.627945 1.000000,150.000000 
M135.257034,13.046864 
	C126.779625,13.315177 118.199059,12.829301 109.841316,13.972502 
	C49.282200,22.255985 5.784800,78.867828 13.381168,139.101364 
	C21.250460,201.498978 76.827652,245.737442 138.495529,238.690170 
	C196.606476,232.049393 239.853638,183.084885 239.267853,124.595573 
	C238.686905,66.588768 194.381210,18.669718 135.257034,13.046864 
z"/>
<path fill="#000000" opacity="1.000000" stroke="none" 
	d="
M251.000000,101.531342 
	C250.344101,101.535133 249.194489,101.150490 249.104019,100.593727 
	C246.385925,83.868576 239.293610,68.887123 229.913040,55.099277 
	C218.929306,38.955051 204.876144,25.835741 187.688538,16.277430 
	C176.115067,9.841218 164.054535,4.769424 150.828415,2.862760 
	C150.281479,2.783913 149.827515,2.060050 149.665131,1.318346 
	C183.593597,1.000000 217.187195,1.000000 251.000000,1.000000 
	C251.000000,34.353909 251.000000,67.708298 251.000000,101.531342 
z"/>
<path fill="#000000" opacity="1.000000" stroke="none" 
	d="
M1.000000,150.468658 
	C1.663340,150.627945 2.779378,151.166138 2.924246,151.896881 
	C7.295049,173.943726 17.392090,193.012756 32.234547,209.803558 
	C47.722496,227.324554 66.613693,239.404968 88.839867,246.392776 
	C93.413826,247.830826 98.057968,249.045609 102.334885,250.681641 
	C68.406395,251.000000 34.812794,251.000000 1.000000,251.000000 
	C1.000000,217.646088 1.000000,184.291702 1.000000,150.468658 
z"/>
<path fill="#000000" opacity="1.000000" stroke="none" 
	d="
M100.531342,0.999999 
	C100.379196,1.664540 99.855156,2.767916 99.123413,2.929257 
	C82.116371,6.679081 66.597107,13.608109 52.450283,23.827951 
	C37.512112,34.619473 25.567881,47.973526 16.511448,63.979233 
	C9.918064,75.631927 4.792615,87.809853 2.862324,101.175995 
	C2.783538,101.721535 2.059892,102.173950 1.318345,102.334877 
	C1.000000,68.406761 1.000000,34.813519 1.000000,1.000000 
	C34.020569,1.000000 67.041626,1.000000 100.531342,0.999999 
z"/>
<path fill="#000000" opacity="1.000000" stroke="none" 
	d="
M151.468658,251.000000 
	C151.620758,250.335464 152.144699,249.232208 152.876450,249.070740 
	C169.883194,245.318130 185.403427,238.390350 199.552322,228.171448 
	C214.492538,217.381042 226.427902,204.019409 235.488861,188.019043 
	C242.086212,176.369034 247.207184,164.189529 249.137726,150.824097 
	C249.216522,150.278549 249.940109,149.826126 250.681641,149.665161 
	C251.000000,183.593231 251.000000,217.186478 251.000000,251.000000 
	C217.979431,251.000000 184.958374,251.000000 151.468658,251.000000 
z"/>
<path fill="#FDFEFF" opacity="1.000000" stroke="none" 
	d="
M135.725967,13.081671 
	C194.381210,18.669718 238.686905,66.588768 239.267853,124.595573 
	C239.853638,183.084885 196.606476,232.049393 138.495529,238.690170 
	C76.827652,245.737442 21.250460,201.498978 13.381168,139.101364 
	C5.784800,78.867828 49.282200,22.255985 109.841316,13.972502 
	C118.199059,12.829301 126.779625,13.315177 135.725967,13.081671 
M168.287445,128.820053 
	C173.543106,126.403008 177.157761,122.486717 179.208450,117.066322 
	C183.850403,104.796745 180.677460,94.235764 169.597397,87.071716 
	C164.767059,83.948570 159.379074,81.687943 154.016068,78.917686 
	C155.721161,71.899239 157.438538,64.830215 159.251846,57.366322 
	C154.762222,56.234482 150.636795,55.194454 146.066925,54.042385 
	C144.148651,61.304707 142.309280,68.268341 140.388474,75.540230 
	C136.491302,74.550835 133.195663,73.714149 129.724152,72.832817 
	C131.543793,65.385513 133.227478,58.494633 134.985474,51.299610 
	C130.355530,50.139412 126.219383,49.102947 121.696152,47.969490 
	C119.771950,55.541611 117.949249,62.714275 116.061180,70.144211 
	C106.757240,67.839317 98.090736,65.692345 88.885033,63.411793 
	C87.677383,68.342003 86.589172,72.784607 85.426109,77.532814 
	C89.057327,78.498543 92.285683,79.215981 95.420921,80.223244 
	C100.423546,81.830437 102.170059,84.670990 100.929909,89.755928 
	C96.233917,109.010780 91.387604,128.228943 86.609604,147.463852 
	C85.602417,151.518524 83.004707,152.808289 79.097916,151.877213 
	C76.220436,151.191437 73.349625,150.477753 70.194817,149.707932 
	C67.965530,154.868347 65.887047,159.679657 63.645119,164.869339 
	C72.909355,167.280365 81.676880,169.562134 90.651604,171.897812 
	C88.786766,179.648041 87.087410,186.710526 85.278931,194.226501 
	C89.849350,195.384003 93.964714,196.426239 98.483917,197.570770 
	C100.448181,189.983093 102.295448,182.847351 104.211594,175.445557 
	C108.185982,176.541931 111.464752,177.446426 114.849670,178.380203 
	C113.002274,186.015823 111.301437,193.045670 109.527641,200.377075 
	C114.362534,201.520935 118.477371,202.494431 122.794029,203.515671 
	C124.774826,195.855957 126.596115,188.813080 128.100281,182.996475 
	C136.280060,182.996475 143.749374,183.420609 151.153046,182.903946 
	C164.576981,181.967163 173.112137,174.223129 176.966064,160.219406 
	C180.072922,148.930191 178.140427,138.819473 165.899399,131.605789 
	C165.505203,131.373489 165.269211,130.872726 164.826340,130.335678 
	C165.827484,129.883362 166.713318,129.483139 168.287445,128.820053 
z"/>
<path fill="#0470FF" opacity="1.000000" stroke="none" 
	d="
M167.943298,128.951492 
	C166.713318,129.483139 165.827484,129.883362 164.826340,130.335678 
	C165.269211,130.872726 165.505203,131.373489 165.899399,131.605789 
	C178.140427,138.819473 180.072922,148.930191 176.966064,160.219406 
	C173.112137,174.223129 164.576981,181.967163 151.153046,182.903946 
	C143.749374,183.420609 136.280060,182.996475 128.100281,182.996475 
	C126.596115,188.813080 124.774826,195.855957 122.794029,203.515671 
	C118.477371,202.494431 114.362534,201.520935 109.527641,200.377075 
	C111.301437,193.045670 113.002274,186.015823 114.849670,178.380203 
	C111.464752,177.446426 108.185982,176.541931 104.211594,175.445557 
	C102.295448,182.847351 100.448181,189.983093 98.483917,197.570770 
	C93.964714,196.426239 89.849350,195.384003 85.278931,194.226501 
	C87.087410,186.710526 88.786766,179.648041 90.651604,171.897812 
	C81.676880,169.562134 72.909355,167.280365 63.645119,164.869339 
	C65.887047,159.679657 67.965530,154.868347 70.194817,149.707932 
	C73.349625,150.477753 76.220436,151.191437 79.097916,151.877213 
	C83.004707,152.808289 85.602417,151.518524 86.609604,147.463852 
	C91.387604,128.228943 96.233917,109.010780 100.929909,89.755928 
	C102.170059,84.670990 100.423546,81.830437 95.420921,80.223244 
	C92.285683,79.215981 89.057327,78.498543 85.426109,77.532814 
	C86.589172,72.784607 87.677383,68.342003 88.885033,63.411793 
	C98.090736,65.692345 106.757240,67.839317 116.061180,70.144211 
	C117.949249,62.714275 119.771950,55.541611 121.696152,47.969490 
	C126.219383,49.102947 130.355530,50.139412 134.985474,51.299610 
	C133.227478,58.494633 131.543793,65.385513 129.724152,72.832817 
	C133.195663,73.714149 136.491302,74.550835 140.388474,75.540230 
	C142.309280,68.268341 144.148651,61.304707 146.066925,54.042385 
	C150.636795,55.194454 154.762222,56.234482 159.251846,57.366322 
	C157.438538,64.830215 155.721161,71.899239 154.016068,78.917686 
	C159.379074,81.687943 164.767059,83.948570 169.597397,87.071716 
	C180.677460,94.235764 183.850403,104.796745 179.208450,117.066322 
	C177.157761,122.486717 173.543106,126.403008 167.943298,128.951492 
M122.897789,162.743393 
	C128.192032,162.937149 133.523300,163.605850 138.770554,163.196762 
	C144.508377,162.749451 148.697601,159.601776 150.134048,153.604309 
	C151.619934,147.400513 149.011673,142.825287 144.159500,139.410675 
	C135.785797,133.517807 126.000168,131.684723 115.882133,129.545349 
	C113.364120,139.667313 110.974205,149.274353 108.479652,159.301987 
	C113.380508,160.483124 117.717484,161.528366 122.897789,162.743393 
M141.955307,119.508072 
	C150.036377,118.174904 153.559372,115.239914 154.600693,108.973244 
	C155.526260,103.403259 152.789185,98.229996 146.063919,95.240799 
	C139.806381,92.459488 133.105911,90.674721 126.147163,88.296303 
	C123.707115,98.195915 121.549232,106.950768 119.143066,116.712929 
	C127.055161,117.753365 134.087357,118.678101 141.955307,119.508072 
z"/>
<path fill="#FAFCFF" opacity="1.000000" stroke="none" 
	d="
M122.476128,162.658508 
	C117.717484,161.528366 113.380508,160.483124 108.479652,159.301987 
	C110.974205,149.274353 113.364120,139.667313 115.882133,129.545349 
	C126.000168,131.684723 135.785797,133.517807 144.159500,139.410675 
	C149.011673,142.825287 151.619934,147.400513 150.134048,153.604309 
	C148.697601,159.601776 144.508377,162.749451 138.770554,163.196762 
	C133.523300,163.605850 128.192032,162.937149 122.476128,162.658508 
z"/>
<path fill="#F9FBFF" opacity="1.000000" stroke="none" 
	d="
M141.537430,119.555450 
	C134.087357,118.678101 127.055161,117.753365 119.143066,116.712929 
	C121.549232,106.950768 123.707115,98.195915 126.147163,88.296303 
	C133.105911,90.674721 139.806381,92.459488 146.063919,95.240799 
	C152.789185,98.229996 155.526260,103.403259 154.600693,108.973244 
	C153.559372,115.239914 150.036377,118.174904 141.537430,119.555450 
z"/>
</svg>